<?xml version="1.0" encoding="utf-8"?>
<!-- Generator: Adobe Illustrator 24.0.3, SVG Export Plug-In . SVG Version: 6.00 Build 0)  -->
<svg version="1.1"
	 id="svg3761" xmlns:cc="http://creativecommons.org/ns#" xmlns:dc="http://purl.org/dc/elements/1.1/" xmlns:rdf="http://www.w3.org/1999/02/22-rdf-syntax-ns#" xmlns:svg="http://www.w3.org/2000/svg"
	 xmlns="http://www.w3.org/2000/svg" xmlns:xlink="http://www.w3.org/1999/xlink" x="0px" y="0px" viewBox="0 0 588.9 431.1"
	 style="enable-background:new 0 0 588.9 431.1;" xml:space="preserve">
<style type="text/css">
	.st0{clip-path:url(#SVGID_2_);}
	.st1{fill:#DC1B30;}
	.st2{fill:#231F20;}
	.st3{display:none;}
	.st4{display:inline;fill:#FFFFFF;}
	.st5{display:inline;fill:none;stroke:#FFFFFF;}
	.st6{display:inline;}
	.st7{fill:#FFFFFF;}
</style>
<g id="layer1" transform="translate(-130.72693,-327.97726)">
	<g id="g3609" transform="matrix(7.626138,0,0,-7.626138,-2317.434,1121.6567)">
		<g>
			<defs>
				<polygon id="SVGID_1_" points="321.5,48.1 391.2,48.1 391.2,103.6 321.5,103.6 321.5,48.1 				"/>
			</defs>
			<clipPath id="SVGID_2_">
				<use xlink:href="#SVGID_1_"  style="overflow:visible;"/>
			</clipPath>
			<g id="g3611" class="st0">
				<g id="g3617" transform="translate(339.3481,79.4906)">
					<path id="path3619" class="st1" d="M0,0c-0.3,0.2-0.8,0.3-1.1,0.1C-1.2,0-1.3,0-1.3-0.1c-0.2-0.2-0.3-0.4-0.3-0.7
						c0-0.2,0.1-0.4,0.2-0.5C-1.3-1.4-1-1.7-0.8-1.8c1-0.8,2.1-1.4,2.1-1.4l0,0l0,0c0,0,0.1-0.1,0.2-0.1C5.8-5.7,11.3-7.1,17-7.1
						h0.1C26.2-7,35.6-3.4,35.6,2.6c0,2-1.3,4.1-4,6.4c-2.2,1.8-4.9,3.4-7.4,4.9l-0.7,0.4c-4.1,2.5-8,4.8-8,6.6
						c0,1.1,1.3,1.4,3.9,1.4c3.1,0,7.4-1,10.8-2.6l0,0h0c0,0,0.1,0,0.2-0.1l0,0c0,0,0.2-0.1,0.4-0.1c0.2,0,0.4-0.1,0.6,0
						c0.2,0.1,0.4,0.2,0.5,0.4c0.1,0.2,0.1,0.5,0.1,0.7c-0.1,0.2-0.2,0.4-0.4,0.5c0,0-0.1,0.1-0.3,0.2c-0.6,0.3-1.1,0.5-1.9,0.8
						c-3.9,1.4-7.8,2.1-12.3,2.1c-8.5,0-17.1-2.8-17.1-9.1c0-2,1.3-4.1,4-6.4c2-1.6,4.3-3.2,6.6-4.7c4.1-2.7,7.9-5.3,7.9-7.2
						c0-0.9-1.1-1.4-3.9-1.4c-2.2,0-3.6,0.2-3.6,0.2c-4.3,0.7-7.7,2-10.8,4.3C0.1-0.1,0,0,0,0"/>
				</g>
				<g id="g3621" transform="translate(324.8466,51.5446)">
					<path id="path3623" class="st2" d="M0,0c-1.1,0-2.2,0.1-3.3,0.5l0.1,1.8c0.9-0.5,2-0.6,3-0.6c1,0,2,0.4,2,1.5
						c0,0.8-1.1,1.2-1.9,1.6l-1.1,0.5C-2.4,5.8-3.4,6.5-3.4,8C-3.4,10.3-1,11,1,11c0.9,0,1.8-0.1,2.7-0.3L3.6,8.9
						C2.8,9.2,1.9,9.4,1.1,9.4C0.2,9.4-1,9.1-1,8.1c0-0.7,0.9-1.1,1.6-1.4l1.2-0.4c1.4-0.5,2.4-1.3,2.4-3C4.2,0.9,2.1,0,0,0"/>
				</g>
				<g id="g3625" transform="translate(333.3424,51.5446)">
					<path id="path3627" class="st2" d="M0,0c-1.8,0-2.3,1.2-2.3,2.8v3.9h-1.4v1.5h1.4v1.6l2.2,0.7V8.2h1.8V6.8h-1.8V2.8
						c0-0.7,0.2-1.2,1-1.2c0.3,0,0.6,0.1,0.9,0.2l0.1-1.5C1.3,0.1,0.6,0,0,0"/>
				</g>
				<g id="g3629" transform="translate(341.4384,55.5446)">
					<path id="path3631" class="st2" d="M0,0h-0.3c-1.1,0-2.9-0.1-2.9-1.5c0-0.8,0.7-1.1,1.3-1.1c1.3,0,1.8,1,1.8,2.2V0z M0.1-3.8
						l0,1.2C-0.5-3.4-1.5-4-2.5-4C-4-4-5.3-3.3-5.3-1.7c0,2.1,2,2.8,4.3,2.8c0.3,0,0.7,0,1,0v0.3C0,2.5-0.7,3-1.9,3
						c-0.8,0-1.7-0.2-2.4-0.6l-0.1,1.5c0.8,0.3,1.9,0.5,2.8,0.5c2.2,0,3.7-0.8,3.7-3.1v-3.2c0-0.8,0-1.3,0.1-1.9
						C2.2-3.8,0.1-3.8,0.1-3.8z"/>
				</g>
				<g id="g3633" transform="translate(350.0621,57.8646)">
					<path id="path3635" class="st2" d="M0,0c-0.2,0.1-0.5,0.1-0.7,0.1c-1.5,0-2-1.4-2-2.7v-3.6h-2.2v6.2c0,0.6,0,1.2-0.1,1.8h2.1
						l0-1.6c0.4,0.9,1.2,1.7,2.3,1.7c0.2,0,0.4,0,0.6-0.1L0,0z"/>
				</g>
				<path id="path3637" class="st2" d="M351.3,63.3h2.2V51.7h-2.2V63.3z"/>
				<path id="path3639" class="st2" d="M355.5,59.8h2.2v-8h-2.2V59.8z M355.5,63h2.2v-1.8h-2.2V63z"/>
				<g id="g3641" transform="translate(364.9097,51.7208)">
					<path id="path3643" class="st2" d="M0,0v4.7c0,1-0.2,1.9-1.3,1.9c-1.2,0-1.6-1.1-1.6-2.2V0h-2.2v6.2c0,0.6,0,1.2-0.1,1.8h2.1
						l0-1.3c0.5,1,1.5,1.5,2.6,1.5c1.9,0,2.7-1.2,2.7-3l0-5.2H0z"/>
				</g>
				<g id="g3645" transform="translate(372.4136,58.3605)">
					<path id="path3647" class="st2" d="M0,0c-1.4,0-1.7-1.5-1.7-2.6c0-1.1,0.3-2.5,1.7-2.5c1.4,0,1.7,1.4,1.7,2.5
						C1.7-1.5,1.4,0,0,0 M-0.4-10.3c-1,0-2,0.1-3,0.4l0.1,1.7c0.7-0.4,1.6-0.6,2.4-0.6c1.8,0,2.6,1,2.6,2.6v0.9
						C1.2-6.1,0.2-6.6-0.8-6.6c-2.3,0-3.3,2-3.3,4c0,2.1,0.9,4.1,3.3,4.1c1.1,0,2-0.5,2.5-1.5v1.3h2.1v-7.5
						C3.9-8.9,2.3-10.3-0.4-10.3"/>
				</g>
				<g id="g3649" transform="translate(381.4692,58.5846)">
					<path id="path3651" class="st2" d="M0,0c-1.2,0-1.7-1.3-1.7-2.2h3.3C1.6-1.2,1.2,0,0,0 M-1.7-3.4c0-1.4,1-2.3,2.4-2.3
						c0.8,0,1.7,0.2,2.4,0.5l0.1-1.5C2.3-6.9,1.2-7,0.2-7c-2.7,0-4.1,1.6-4.1,4.2c0,2.4,1.6,4.1,3.9,4.1c2.6,0,3.6-1.8,3.6-4.2v-0.5
						C3.6-3.4-1.7-3.4-1.7-3.4z"/>
				</g>
				<g id="g3653" transform="translate(391.1172,57.8646)">
					<path id="path3655" class="st2" d="M0,0c-0.2,0.1-0.5,0.1-0.7,0.1c-1.5,0-2-1.4-2-2.7v-3.6h-2.2v6.2c0,0.6,0,1.2-0.1,1.8h2.1
						l0-1.6c0.4,0.9,1.2,1.7,2.3,1.7c0.2,0,0.4,0,0.6-0.1L0,0z"/>
				</g>
			</g>
		</g>
	</g>
</g>
<g class="st3">
	<path class="st4" d="M520.1,572.9h-6.8L499.2,597l-14.1-24.1h-6.8l17.7,30v21.4h5.9v-21.4L520.1,572.9z M448.8,572
		c-15,0-26.8,11.4-26.8,26.9c0,15,11.8,26.9,26.8,26.9c10.4,0,19.1-5.5,23.6-13.2v-13.7h-24.1v5.5h17.7v6.8
		c-3.6,5.5-9.5,9.1-17.2,9.1c-12.3,0-20.9-9.1-20.9-21.4c0-11.8,8.6-20.9,20.4-20.9c6.8,0,12.7,3.2,16.3,8.6l4.5-3.6
		C464.7,575.6,457.4,572,448.8,572 M387.5,577.4c11.8,0,20.4,9.1,20.4,20.9c0,12.3-8.6,20.9-20.4,20.9s-20.4-9.1-20.4-20.9
		C367.1,586.5,375.7,577.4,387.5,577.4 M387.5,572c-15,0-26.8,11.4-26.8,26.9c0,15,11.8,26.9,26.8,26.9s26.8-11.4,26.8-26.9
		C414.3,583.3,402.5,572,387.5,572 M331.7,572.9h-5.9v51.9h30.4v-5.5h-24.5C331.7,619.3,331.7,572.9,331.7,572.9z M288.1,577.4
		c11.8,0,20.4,9.1,20.4,20.9c0,12.3-8.6,20.9-20.4,20.9s-20.4-9.1-20.4-20.9C267.7,586.5,276.3,577.4,288.1,577.4 M288.1,572
		c-15,0-26.8,11.4-26.8,26.9c0,15,11.8,26.9,26.8,26.9s26.8-11.4,26.8-26.9C314.9,583.3,303.1,572,288.1,572 M244.6,572.9V612
		l-32.7-39.6h-2.3v52.8h5.9v-39.6l32.7,39.6h2.3v-52.8h-5.9V572.9z M195.1,572.9h-5.9v21.4h-29v-21.4h-5.9v51.9h5.9v-25.5h29v25h5.9
		V572.9z M121.6,572c-15,0-26.8,11.4-26.8,26.9c0,15,11.8,26.9,26.8,26.9c9.5,0,17.2-4.6,21.3-10.9l-4.5-3.6
		c-3.6,5.5-9.5,9.1-16.8,9.1c-11.8,0-20.4-9.1-20.4-20.9c0-12.3,9.1-20.9,20.4-20.9c7.3,0,13.2,3.6,16.8,9.1l4.5-3.6
		C138.8,576.5,131.1,572,121.6,572 M88.4,572.9H55.3v51.9h34v-5.5H61.6v-20h20.4v-5.5H61.6v-15.9h26.8V572.9z M46.7,572.9H4v5.5
		h18.2v46.4h5.9v-46.4h18.2v-5.5H46.7z"/>
	<path class="st4" d="M398,483.7c-15,0-26.8,11.4-26.8,26.9c0,15,11.8,26.9,26.8,26.9c10.4,0,19.1-5.5,23.6-13.2v-13.7H398v5.5h17.7
		v6.8c-3.6,5.5-9.5,9.1-17.2,9.1c-12.3,0-20.9-9.1-20.9-21.4c0-11.8,8.6-20.9,20.4-20.9c6.8,0,12.7,3.2,16.3,8.6l4.5-3.6
		C414.3,487.7,406.6,483.7,398,483.7 M353.5,484.6v39.1l-32.7-39.6h-2.3v52.8h5.9v-38.7l32.7,39.6h2.3V485h-5.9V484.6z M303.6,484.6
		h-5.9v51.9h5.9V484.6z M260.9,484.6H255v51.9h30.4V531h-24.5V484.6z M221.9,483.7c-15,0-26.8,11.4-26.8,26.9
		c0,15,11.8,26.9,26.8,26.9c9.5,0,17.2-4.6,21.3-10.9l-4.5-3.6c-3.6,5.5-9.5,9.1-16.8,9.1c-11.8,0-20.4-9.1-20.4-20.9
		c0-12.3,9.1-20.9,20.4-20.9c7.3,0,13.2,3.6,16.8,9.1l4.5-3.6C239.1,488.2,231.4,483.7,221.9,483.7 M190.1,484.6h-6.8l-14.1,24.1
		l-14.1-24.1h-6.8l17.7,30V536h5.9v-21.4L190.1,484.6z M120.6,483.7c-15,0-26.8,11.4-26.8,26.9c0,15,11.8,26.9,26.8,26.9
		c9.5,0,17.2-4.6,21.3-10.9l-4.5-3.6c-3.6,5.5-9.5,9.1-16.8,9.1c-11.8,0-20.4-9.1-20.4-20.9c0-12.3,9.1-20.9,20.4-20.9
		c7.3,0,13.2,3.6,16.8,9.1l4.5-3.6C137.4,488.2,129.7,483.7,120.6,483.7 M86.6,484.6H53.5v51.9h34V531H59.8v-19.6h20.4V506H59.8V490
		h26.8V484.6z M10.4,490h11.8c6.8,0,10.4,4.1,10.4,9.6c0,5.5-3.6,9.6-10.4,9.6H10.4V490z M44.4,536.5l-16.3-22.3
		c6.8-1.8,10.9-7.3,10.9-14.6c0-8.6-6.4-15-16.3-15H4.5v51.9h5.9v-21.8h10.9l15.9,21.8H44.4z"/>
	<path class="st4" d="M499.2,473.2L499.2,473.2c-36.8,5.5-65.4,37.3-65.4,75.6c0,4.1,0.5,8.2,0.9,11.8l20-6.8c0-1.8-0.5-3.2-0.5-5
		c0-27.8,20.4-51,47.2-55.1l-0.9,16.4l27.2-14.1l22.7-11.8c-11.8-7.7-25.9-11.8-40.9-11.8c-0.5,0-1.4,0-1.8,0s-0.5,0-0.9,0
		c-0.5,0-0.5,0-0.9,0s-0.9,0-1.4,0h-0.5c-0.5,0-0.9,0-1.4,0h-0.5c-0.5,0-0.9,0-1.8,0l0,0C500.6,473.2,499.6,473.2,499.2,473.2"/>
	<path class="st5" d="M584.1,548.7c0-17.8-6.4-34.6-17.7-47.8c-5,2.7-10,5-15,7.7c10.4,10.9,16.3,25.5,16.3,40.5
		c0,14.1-5,27.3-14.1,38.2l-1.8,2.3l-1.8-2.3c-2.7-3.2-5-6.4-7.7-10c-6.4,15-12.3,29.6-18.6,44.6c6.8-1.4,13.6-3.6,20-6.8l1.4-0.5
		l1.4-0.9l0.9-0.5l0.9-0.5l1.4-0.9l0.9-0.5l0.9-0.9l0.9-0.9l0.9-0.9l0.9-0.9l0.9-0.9l0.9-0.9l0.9-0.9l1.8-1.8
		c2.7-2.7,5.4-5.5,7.7-8.2C578.6,581.5,584.1,565.6,584.1,548.7z"/>
	<g class="st6">
		<path class="st7" d="M140.2,187.8c-2.7-1.8-5.9-1.8-8.6-0.5c-0.5,0.5-0.9,0.5-1.4,0.9c-1.4,1.4-2.3,3.2-2.3,5.5
			c0,1.4,0.5,2.7,1.4,4.1c0.9,1.4,3.6,3.2,5,4.1c8.2,5.9,16.3,10.5,16.3,10.9l0,0l0,0c0,0,0.9,0.5,1.4,0.9
			c32.2,18.2,74,28.7,117.6,28.7h0.9C340.3,242,412,213.7,412,167.8c0-15.5-10-31.4-30.9-49.2C363.9,105,344,92.2,324.4,80.8l-5-3.2
			c-31.3-19.1-60.8-36.9-60.8-50.1c0-8.2,9.5-10.5,30-10.5c24.1,0,56.3,7.3,82.2,19.6l0,0l0,0c0.5,0,0.9,0.5,1.4,0.5l0,0
			c0,0,1.8,0.9,2.7,0.9c1.4,0.5,3.2,0.5,4.5,0c1.8-0.5,3.2-1.8,4.1-3.2c0.9-1.8,0.9-3.6,0.5-5.5c-0.5-1.4-1.4-2.7-2.7-3.6
			c0,0-0.9-0.5-2.3-1.4c-4.5-2.3-8.6-4.1-14.5-5.9C334.4,8,304.5,3,270,3c-64.9,0-130.3,21.4-130.3,69.2c0,15.5,10,31.4,30.4,48.7
			c15.4,12.3,33.1,24.6,50.4,36c31.3,20.9,60.4,40.5,60.4,55.5c0,6.8-8.6,10.5-30,10.5c-16.8,0-27.7-1.8-27.7-1.8
			c-33.1-5.5-59-15.5-82.6-32.8C141.1,188.7,140.6,188.3,140.2,187.8"/>
		<g>
			<path class="st7" d="M29.4,402.2c-8.6,0-16.8-0.9-25-3.6l0.5-14.1c7.3,3.6,15,5,22.7,5s15.9-2.7,15.9-11.4
				c0-6.4-8.6-9.6-14.5-12.3l-8.2-3.6c-10-4.1-17.2-9.6-17.2-20.9c0-17.8,18.2-23.2,33.1-23.2c6.8,0,13.6,0.9,20.4,2.7l-0.5,13.7
				c-5.9-2.3-12.7-3.6-19.1-3.6c-6.8,0-16.3,1.8-16.3,10c0,5.5,7.3,8.6,12.3,10.9l8.6,3.6c10.9,4.1,18.6,10,18.6,22.8
				C61.6,395.4,45.3,402.2,29.4,402.2"/>
			<path class="st7" d="M94.3,402.2c-14.1,0-17.2-9.1-17.2-21.8v-30H66.2v-11.4h10.9v-12.3l16.8-5.5v18.2h13.6v11.4H93.9v30
				c0,5,1.4,9.1,7.3,9.1c2.3,0,4.5-0.5,6.8-1.4l0.5,11.4C103.9,401.3,98.9,402.2,94.3,402.2"/>
			<path class="st7" d="M156.1,371.7h-2.3c-8.6,0-21.8,0.9-21.8,11.8c0,5.9,5,8.6,10,8.6c10.4,0,14.1-8.2,14.1-16.8V371.7z
				 M156.5,400.8l-0.5-9.6c-4.1,6.8-11.8,10.9-19.5,10.9c-11.3,0-20.9-5.5-20.9-17.8c0-16.4,15.4-21.8,33.1-21.8c2.3,0,5,0,7.3,0.5
				v-2.3c0-8.6-5.4-12.3-14.5-12.3c-6.4,0-12.7,1.4-18.6,5l-0.9-11.4c6.4-2.3,15-4.1,21.3-4.1c16.3,0,28.6,5.9,28.6,24.1v24.6
				c0,6.4,0,10.5,0.5,14.6h-15.9V400.8z"/>
			<path class="st7" d="M221.9,353.9c-1.8-0.5-3.6-0.9-5.4-0.9c-11.3,0-15,10.9-15,20.5v27.3h-16.8V353c0-4.6,0-9.1-0.5-13.7h15.9
				l0.5,11.8c2.7-6.8,9.1-13.2,17.2-13.2c1.8,0,3.2,0,5,0.5L221.9,353.9z"/>
			<rect x="231.8" y="312.5" class="st7" width="16.8" height="88.3"/>
			<path class="st7" d="M264.1,339.4h16.8v61.4h-16.8V339.4z M264.1,314.3h16.8V328h-16.8V314.3z"/>
			<path class="st7" d="M335.8,400.8v-36c0-7.3-1.4-14.6-10.4-14.6c-9.5,0-12.3,8.6-12.3,16.8v34.1h-16.8V353c0-4.6,0-9.1-0.5-13.7
				h15.9l0.5,10.5c4.1-7.7,11.3-11.4,20-11.4c15,0,20.9,8.6,20.9,22.8v40.1h-17.2V400.8z"/>
			<path class="st7" d="M393,349.8c-10.9,0-13.2,11.4-13.2,20c0,8.2,2.3,19.1,13.2,19.1c10.4,0,13.2-10.9,13.2-19.1
				C406.1,361.2,403.4,349.8,393,349.8 M389.8,428.6c-7.7,0-15.9-0.9-23.1-3.2l0.9-12.7c5.4,2.7,12.3,4.6,18.6,4.6
				c13.6,0,19.5-7.7,19.5-20v-6.8c-4.1,6.8-11.3,10.5-19.1,10.5c-17.7,0-25-15.5-25-31c0-16.4,7.3-31.9,25.4-31.9
				c8.6,0,15.4,3.6,19.5,11.4v-10h16.3v57.8C422.9,418.1,410.7,428.6,389.8,428.6"/>
			<path class="st7" d="M462.4,348c-9.5,0-13.2,10-13.2,16.8h25.4C474.2,357.6,471.5,348,462.4,348 M448.8,374.4
				c0,10.5,8.2,17.3,18.2,17.3c5.9,0,13.2-1.4,18.6-4.1l0.9,11.4c-6.8,2.3-15.4,3.2-22.7,3.2c-20.4,0-31.8-11.8-31.8-32.3
				c0-18.2,12.3-31.9,30-31.9c19.5,0,27.7,13.7,27.7,32.3v3.6h-40.9V374.4z"/>
			<path class="st7" d="M536,353.9c-1.8-0.5-3.6-0.9-5.4-0.9c-11.3,0-15,10.9-15,20.5v27.3h-16.8V353c0-4.6,0-9.1-0.5-13.7h15.9
				l0.5,11.8c2.7-6.8,9.1-13.2,17.2-13.2c1.8,0,3.2,0,5,0.5L536,353.9z"/>
		</g>
	</g>
	<line class="st5" x1="4.9" y1="450" x2="540.5" y2="450"/>
</g>
</svg>
